<svg xmlns="http://www.w3.org/2000/svg" width="128" height="128" viewBox="0 0 128 128" role="img" aria-label="Cloud Code">
  <defs>
    <linearGradient id="g" x1="0%" y1="0%" x2="100%" y2="100%">
      <stop offset="0%" stop-color="#38bdf8"/>
      <stop offset="50%" stop-color="#6366f1"/>
      <stop offset="100%" stop-color="#a855f7"/>
    </linearGradient>
    <filter id="s" x="-20%" y="-20%" width="140%" height="140%">
      <feDropShadow dx="0" dy="4" stdDeviation="6" flood-color="#6366f1" flood-opacity="0.35"/>
    </filter>
  </defs>
  <rect width="128" height="128" rx="28" fill="#0f172a"/>
  <g filter="url(#s)">
    <path fill="url(#g)" d="M88 52c0 14-9 26-22 30-4 12-15 20-28 20-17 0-30-13-30-30 0-15 11-27 26-29 5-14 18-23 34-23 19 0 34 15 34 32z"/>
    <path fill="#e2e8f0" opacity="0.9" d="M44 78h40v6a6 6 0 0 1-6 6H50a6 6 0 0 1-6-6v-6z"/>
    <circle cx="54" cy="58" r="4" fill="#0f172a"/>
    <circle cx="74" cy="58" r="4" fill="#0f172a"/>
    <path stroke="#0f172a" stroke-width="3" stroke-linecap="round" fill="none" d="M58 66c4 4 8 4 12 0"/>
  </g>
</svg>
